<svg width="70" height="64" viewBox="0 0 70 64" fill="none" xmlns="http://www.w3.org/2000/svg">
<path d="M30.632 32.064C30.5253 32.2133 30.3973 32.384 30.248 32.576C30.0987 32.7467 29.9173 32.9493 29.704 33.184C25.544 37.92 21.3093 40.288 17 40.288C15.6133 40.288 14.3653 39.8507 13.256 38.976C12.3387 38.208 11.7627 37.3547 11.528 36.416C9.84267 35.4347 9 33.9413 9 31.936C9 29.9093 9.74667 28.1813 11.24 26.752C12.7547 25.3013 14.6533 24.576 16.936 24.576C18.856 24.576 20.2853 25.3013 21.224 26.752C22.184 26.9653 22.984 27.4027 23.624 28.064C24.264 28.704 24.584 29.504 24.584 30.464C24.584 30.6773 24.552 30.944 24.488 31.264C24.424 31.5627 24.3707 31.8293 24.328 32.064C23.816 33.664 22.664 34.976 20.872 36C19.1653 36.96 17.4267 37.44 15.656 37.44C14.0773 37.44 12.808 37.152 11.848 36.576C12.1253 37.4507 12.7013 38.2187 13.576 38.88C14.5573 39.648 15.688 40.032 16.968 40.032C19.1653 40.032 21.1387 39.2853 22.888 37.792C23.784 37.0027 24.9893 35.5947 26.504 33.568C26.6107 33.4187 26.7493 33.2267 26.92 32.992C27.0907 32.736 27.3147 32.4267 27.592 32.064C29.8747 29.0773 32.3067 26.8053 34.888 25.248C37.4693 23.6693 40.1467 22.8693 42.92 22.848C43.2187 22.848 43.368 22.8693 43.368 22.912L43.176 23.04C40.8933 24.4267 38.184 27.1147 35.048 31.104C32.0187 34.9013 30.504 37.4187 30.504 38.656C30.504 39.4027 30.8133 39.776 31.432 39.776C32.2853 39.776 33.736 38.432 35.784 35.744L35.944 35.904C33.96 38.6347 32.4453 40 31.4 40C30.568 40 30.152 39.5093 30.152 38.528C30.152 37.2693 30.728 35.6587 31.88 33.696C32.0293 33.4613 32.1893 33.2053 32.36 32.928C32.552 32.6507 32.7653 32.3627 33 32.064C33.6827 31.1893 34.472 30.2613 35.368 29.28C36.2853 28.2987 37.256 27.3493 38.28 26.432C39.1973 25.6213 40.0187 24.9387 40.744 24.384C41.4693 23.808 42.1093 23.3707 42.664 23.072C40.5733 23.072 38.7493 23.5307 37.192 24.448C36.5947 24.8107 35.9973 25.2693 35.4 25.824C34.824 26.3787 34.248 27.0293 33.672 27.776C33.2027 28.4373 32.6907 29.152 32.136 29.92C31.6027 30.6667 31.1013 31.3813 30.632 32.064ZM24.008 32.064C24.0507 31.8933 24.104 31.648 24.168 31.328C24.232 30.9867 24.264 30.6773 24.264 30.4C24.264 28.7573 23.336 27.712 21.48 27.264C21.6933 27.712 21.8 28.256 21.8 28.896C21.7787 29.92 21.4587 30.8693 20.84 31.744C20.1147 32.7253 19.176 33.3547 18.024 33.632C17.7893 33.632 17.6613 33.6 17.64 33.536C17.64 33.408 17.6933 33.344 17.8 33.344C17.9067 33.3227 18.0667 33.2907 18.28 33.248C18.7493 33.0987 19.1867 32.8747 19.592 32.576C19.9973 32.2773 20.3387 31.936 20.616 31.552C20.9147 31.1467 21.1387 30.72 21.288 30.272C21.4587 29.8027 21.544 29.3227 21.544 28.832C21.544 28.256 21.4053 27.7013 21.128 27.168C20.9147 27.1467 20.7227 27.136 20.552 27.136C20.3813 27.1147 20.232 27.104 20.104 27.104C17.7573 27.104 15.7307 27.9147 14.024 29.536C12.3813 31.072 11.56 32.7787 11.56 34.656C11.56 35.296 11.6133 35.808 11.72 36.192C12.5733 36.832 13.8853 37.152 15.656 37.152C17.4053 37.152 19.08 36.704 20.68 35.808C22.3867 34.8053 23.496 33.5573 24.008 32.064ZM20.776 26.688C19.944 25.6213 18.664 25.088 16.936 25.088C14.824 25.088 13.0107 25.7813 11.496 27.168C10.024 28.5547 9.288 30.1867 9.288 32.064C9.288 33.7707 10.0027 35.104 11.432 36.064C11.3253 35.4667 11.272 35.0187 11.272 34.72C11.272 32.672 12.008 30.8587 13.48 29.28C15.144 27.5093 17.32 26.624 20.008 26.624C20.0933 26.624 20.2 26.6347 20.328 26.656C20.456 26.656 20.6053 26.6667 20.776 26.688ZM62.7515 22.816C62.1968 22.88 61.4288 23.072 60.4475 23.392C59.4022 23.712 58.6342 24.0213 58.1435 24.32C59.3168 25.4933 59.9035 27.0507 59.9035 28.992C59.9035 31.8293 58.6875 34.4 56.2555 36.704C53.6315 39.1573 50.4848 40.384 46.8155 40.384C45.7702 40.384 44.1808 40.1173 42.0475 39.584C39.7435 40.2453 37.8448 40.576 36.3515 40.576C34.8155 40.576 34.0475 40.2347 34.0475 39.552C34.0475 39.168 34.3995 38.8373 35.1035 38.56C35.8288 38.2613 36.7782 38.112 37.9515 38.112C39.0608 38.112 40.6822 38.3787 42.8155 38.912C43.9675 38.2933 46.2075 35.648 49.5355 30.976C51.4768 28.2667 54.1648 26.016 57.5995 24.224C57.1942 23.8187 56.5542 23.4347 55.6795 23.072C54.5062 22.6027 53.2582 22.368 51.9355 22.368C50.6555 22.368 49.5888 22.4853 48.7355 22.72C49.5035 23.3173 49.8875 24.3093 49.8875 25.696C49.8875 28.384 48.8528 30.784 46.7835 32.896C44.9488 34.7733 43.1995 35.712 41.5355 35.712C39.8928 35.712 39.0715 34.528 39.0715 32.16C39.0715 29.6213 40.3408 27.3387 42.8795 25.312C44.8208 23.7973 46.6128 22.9013 48.2555 22.624C47.6795 22.1547 46.8262 21.92 45.6955 21.92C43.4342 21.92 41.2582 22.9867 39.1675 25.12C37.0768 27.232 36.0315 29.4827 36.0315 31.872C36.0315 33.3227 36.3942 34.528 37.1195 35.488C37.1195 35.6587 37.0768 35.744 36.9915 35.744C36.8848 35.744 36.8102 35.6907 36.7675 35.584C36.0848 34.4747 35.7435 33.2267 35.7435 31.84C35.7435 29.1733 36.8208 26.7947 38.9755 24.704C41.0448 22.6987 43.2848 21.696 45.6955 21.696C46.8262 21.696 47.7648 21.9733 48.5115 22.528C49.6635 22.272 50.8048 22.144 51.9355 22.144C53.3862 22.144 54.7408 22.4107 55.9995 22.944C56.8102 23.3067 57.4395 23.6907 57.8875 24.096C59.5942 23.2213 61.1942 22.7093 62.6875 22.56C62.8155 22.56 62.8795 22.6027 62.8795 22.688C62.8795 22.7733 62.8368 22.816 62.7515 22.816ZM59.2955 28.16C59.2955 26.56 58.8368 25.3333 57.9195 24.48C56.8102 25.0773 55.4662 26.5387 53.8875 28.864C51.7328 32.0213 50.5168 33.76 50.2395 34.08C48.2555 36.3627 45.9408 38.0267 43.2955 39.072C45.6422 39.6907 47.1888 40 47.9355 40C49.7275 40 51.5622 39.296 53.4395 37.888C55.0822 36.608 56.4688 35.0293 57.5995 33.152C58.7302 31.2533 59.2955 29.5893 59.2955 28.16ZM49.6315 25.536C49.6315 24.256 49.2475 23.3387 48.4795 22.784C46.5595 23.1893 44.6395 24.416 42.7195 26.464C40.6075 28.7253 39.5515 30.9867 39.5515 33.248C39.5515 33.8453 39.7222 34.368 40.0635 34.816C40.4262 35.264 40.9062 35.488 41.5035 35.488C43.0395 35.488 44.7782 34.3467 46.7195 32.064C48.6608 29.76 49.6315 27.584 49.6315 25.536ZM41.4715 39.424C39.5302 38.8693 38.0048 38.592 36.8955 38.592C36.1062 38.592 35.4768 38.6987 35.0075 38.912C34.5595 39.104 34.3355 39.328 34.3355 39.584C34.3355 40.0747 35.0928 40.32 36.6075 40.32C38.5488 40.32 40.1702 40.0213 41.4715 39.424Z" fill="white"/>
<path d="M34.9863 55.9267C34.3855 55.835 33.8083 55.6842 33.3174 55.469C32.6277 55.1074 31.9026 54.3842 31.3544 53.8598C30.9256 53.3525 29.3577 50.2307 27.7291 49.8457C25.997 49.5624 24.3969 52.8479 28.4367 55.1619C28.0143 53.968 28.6759 53.4033 28.923 53.3086C29.9097 53.0632 30.4396 54.134 30.6384 54.4296C31.2241 55.268 31.903 56.6418 32.3187 56.9251C30.5331 56.478 29.6665 58.229 28.3748 57.9193C27.9857 57.847 27.3935 57.5308 27.1457 57.2413C26.9865 56.8977 27.0131 56.4909 27.1899 56.1293C27.3756 55.8128 27.7824 55.5778 28.304 55.3879C27.8525 55.2959 26.7705 54.847 26.2883 54.4299C25.9697 54.1403 25.7047 53.7789 25.4571 53.3088C25.0038 55.0303 23.1569 56.8444 21.3366 56.3284C22.2533 57.3473 21.4982 58.6229 20.2048 58.245C18.3079 57.6355 19.7235 56.934 17.2073 55.4696C18.3047 55.1743 18.3607 54.9968 19.3117 54.3485C20.4905 53.6508 21.5341 53.3453 21.7785 54.7008C21.9683 55.1968 21.5914 55.5498 21.2217 55.9758C22.5604 55.7477 24.0944 54.5829 24.3607 54.2671C24.8243 53.8269 25.0404 53.0545 24.9973 52.4228C24.7947 51.2864 24.9147 50.8575 25.0681 50.1988C22.8663 51.8728 20.6442 49.9736 18.781 51.184C16.8354 52.6631 15.8014 54.7472 16.6591 56.9884C17.3046 58.5724 17.258 58.3651 18.5599 59.6371C20.4686 61.3394 23.2806 61.4737 24.7492 60.8302C24.3514 60.6223 24.0687 60.4055 23.9006 60.1795C23.3353 59.4189 24.36 57.6593 26.403 58.8686C27.0541 59.1682 26.6502 59.4389 28.5956 59.8628C27.6182 60.6036 27.5945 61.6238 26.5887 62.4939C26.1491 62.8397 25.7075 63.0829 25.227 62.8375C24.5875 62.4589 24.5935 61.901 24.8642 61.2009C23.9616 61.5387 23.1013 61.8147 22.1583 61.9058C22.3882 62.1228 22.512 62.3759 22.5296 62.5929C22.6103 63.0383 22.0168 64.6397 20.434 63.6688C21.5811 63.3441 21.8725 62.372 21.5042 61.8699C20.9296 61.0587 16.7702 60.846 15.7918 56.0113C15.6504 56.3548 15.4821 56.6168 15.2878 56.7978C14.9525 57.3121 13.6613 57.1167 13.431 56.9786C12.8588 56.5736 13.3429 54.9293 14.0411 54.6914C13.9085 54.8812 13.8377 55.062 13.8289 55.2338C13.8731 55.4056 13.8905 55.6223 14.0232 55.7398C15.736 56.9907 15.275 53.2556 18.179 50.8217C18.5901 50.5125 19.4171 50.1621 19.9032 50.2702C16.9779 47.8863 16.6826 47.6966 15.2699 47.0517C13.9121 46.321 12.0619 47.2237 12.0069 49.1941C12.4755 48.8777 12.9088 48.7059 13.2359 48.7511C13.9747 48.88 14.9041 50.0289 13.6957 51.2644C13.2272 51.8571 12.3781 52.0496 11.114 53.7418C11.1132 52.0953 10.1727 52.0071 9.36327 50.5776C9.05542 49.7172 8.9275 49.1027 9.5578 48.3355C9.7968 48.0374 10.124 47.9741 10.3713 47.9015C10.999 47.8166 11.3079 48.4093 11.7153 48.9502C11.7153 47.2653 12.8235 46.2216 13.4481 46.0931C12.9176 45.6146 10.2305 43.9913 7.76257 45.4331C9.0994 46.0665 8.46519 48.1215 7.35582 49.0856C6.99306 49.3837 6.5777 49.3568 6.17954 49.4198C5.33583 49.6115 4.87291 49.3309 3.83633 48.5971C2.51429 47.546 3.07355 47.6546 0.909563 47.0512C0.495193 46.9344 0.203167 46.8889 2.73702e-05 46.8801L0 46.8801C0.867388 46.1188 2.00947 44.7153 2.26362 44.2583C2.72188 43.591 2.25066 43.1336 4.29758 42.0888C6.50431 41.0774 8.27082 43.0536 7.29511 45.2982C8.06336 44.4744 8.63627 44.2711 9.30207 44.186C9.56759 44.1501 9.82403 44.123 10.0006 44.177C9.36975 42.648 9.65893 42.0387 10.6547 41.2295C11.0216 40.9621 11.7182 40.9582 12.1579 41.0667C11.6167 41.4439 10.7832 42.0227 10.6105 42.685C10.5442 44.9908 13.4206 44.9276 13.8467 45.1621C14.1297 45.3068 14.395 45.578 14.6779 45.9396C15.6683 46.1142 17.4683 47.4438 18.1885 48.1006C18.2211 47.628 18.4002 47.2436 18.8517 46.8982C19.4181 46.5588 19.7808 46.2609 20.5318 46.8801C19.2861 47.116 19.3721 47.7357 19.4088 48.3362C19.4972 48.6074 19.5326 48.8425 19.8241 49.1406C20.1425 49.4661 20.7263 49.8822 21.2038 50.0811C22.3775 50.4672 23.874 50.4296 25.2621 49.6017C25.4 48.8969 26.5232 48.6245 27.216 48.5979C29.6449 48.7397 31.1431 52.5254 31.1773 52.5758C32.6401 54.57 34.0104 55.076 34.9864 55.1764C35.9623 55.076 37.3326 54.57 38.7954 52.5758C38.8297 52.5254 40.3278 48.7397 42.7567 48.5979C43.4495 48.6245 44.5727 48.8969 44.7106 49.6017C46.0987 50.4296 47.5952 50.4672 48.7689 50.0811C49.2464 49.8822 49.8303 49.4661 50.1486 49.1406C50.4401 48.8425 50.4755 48.6074 50.5639 48.3362C50.6006 47.7357 50.6867 47.116 49.441 46.8801C50.192 46.2609 50.5547 46.5588 51.121 46.8982C51.5726 47.2435 51.7516 47.628 51.7842 48.1006C52.5045 47.4438 54.3044 46.1143 55.2948 45.9396C55.5778 45.578 55.843 45.3068 56.126 45.1621C56.5521 44.9276 59.4285 44.9908 59.3623 42.685C59.1895 42.0227 58.356 41.4439 57.8149 41.0667C58.2545 40.9582 58.9511 40.9621 59.318 41.2295C60.3138 42.0387 60.603 42.648 59.9721 44.177C60.1487 44.123 60.4052 44.1501 60.6706 44.186C61.3364 44.2711 61.9093 44.4744 62.6776 45.2982C61.7019 43.0536 63.4684 41.0774 65.6751 42.0888C67.7221 43.1335 67.2508 43.591 67.7091 44.2583C67.9632 44.7153 69.1053 46.1188 69.9727 46.8801L69.9727 46.8801C69.7696 46.8889 69.4775 46.9344 69.0632 47.0512C66.8992 47.6546 67.4584 47.546 66.1364 48.5971C65.0998 49.3308 64.6369 49.6115 63.7932 49.4198C63.395 49.3568 62.9797 49.3837 62.6169 49.0856C61.5075 48.1215 60.8733 46.0665 62.2102 45.4331C59.7422 43.9912 57.0551 45.6146 56.5246 46.0931C57.1492 46.2216 58.2574 47.2653 58.2574 48.9502C58.6648 48.4093 58.9737 47.8166 59.6015 47.9015C59.8488 47.9741 60.176 48.0374 60.4149 48.3355C61.0452 49.1027 60.9173 49.7172 60.6095 50.5776C59.8 52.0071 58.8596 52.0953 58.8587 53.7418C57.5947 52.0496 56.7456 51.8571 56.277 51.2644C55.0686 50.0289 55.9981 48.88 56.7368 48.7511C57.064 48.7059 57.4972 48.8777 57.9659 49.1941C57.9108 47.2237 56.0606 46.321 54.7028 47.0517C53.2902 47.6966 52.9948 47.8863 50.0695 50.2702C50.5557 50.1621 51.3827 50.5125 51.7938 50.8217C54.6978 53.2556 54.2367 56.9908 55.9496 55.7398C56.0823 55.6223 56.0997 55.4056 56.1439 55.2338C56.135 55.062 56.0643 54.8812 55.9317 54.6914C56.6299 54.9293 57.114 56.5737 56.5418 56.9786C56.3115 57.1167 55.0203 57.3121 54.6849 56.7978C54.4907 56.6168 54.3224 56.3548 54.181 56.0113C53.2026 60.846 49.0432 61.0587 48.4686 61.8699C48.1003 62.372 48.3917 63.3441 49.5388 63.6688C47.956 64.6397 47.3625 63.0383 47.4432 62.5929C47.4608 62.3759 47.5846 62.1228 47.8145 61.9058C46.8715 61.8147 46.0112 61.5387 45.1086 61.2009C45.3793 61.901 45.3853 62.459 44.7458 62.8375C44.2653 63.0829 43.8237 62.8397 43.3841 62.4939C42.3783 61.6238 42.3545 60.6036 41.3772 59.8628C43.3226 59.4389 42.9187 59.1682 43.5698 58.8686C45.6128 57.6593 46.6375 59.4189 46.0722 60.1795C45.9042 60.4055 45.6214 60.6223 45.2236 60.8302C46.6922 61.4737 49.5042 61.3394 51.4129 59.6371C52.7148 58.3651 52.6682 58.5725 53.3137 56.9884C54.1714 54.7472 53.1373 52.6631 51.1918 51.184C49.3286 49.9736 47.1065 51.8728 44.9047 50.1988C45.0581 50.8575 45.1781 51.2864 44.9755 52.4228C44.9324 53.0545 45.1485 53.8269 45.6121 54.2671C45.8783 54.5829 47.4124 55.7477 48.7511 55.9758C48.3814 55.5498 48.0045 55.1968 48.1943 54.7008C48.4387 53.3452 49.4823 53.6507 50.6611 54.3485C51.6121 54.9968 51.6681 55.1743 52.7655 55.4696C50.2493 56.934 51.6649 57.6355 49.768 58.245C48.4746 58.6229 47.7195 57.3473 48.6362 56.3284C46.8159 56.8443 44.969 55.0303 44.5157 53.3088C44.2681 53.7789 44.0031 54.1403 43.6845 54.4299C43.2023 54.847 42.1203 55.2959 41.6687 55.3879C42.1904 55.5778 42.5972 55.8128 42.7829 56.1293C42.9597 56.4909 42.9862 56.8977 42.8271 57.2413C42.5793 57.5308 41.9871 57.847 41.598 57.9193C40.3063 58.229 39.4397 56.478 37.6541 56.9251C38.0698 56.6418 38.7487 55.268 39.3344 54.4296C39.5332 54.134 40.0631 53.0632 41.0498 53.3086C41.2969 53.4033 41.9584 53.968 41.5361 55.1619C45.5759 52.8479 43.9758 49.5624 42.2437 49.8457C40.6151 50.2307 39.0472 53.3525 38.6184 53.8598C38.0702 54.3842 37.3451 55.1074 36.6554 55.469C36.1644 55.6842 35.5871 55.835 34.9863 55.9267Z" fill="white"/>
<path d="M34.9951 7.69931C34.3943 7.78704 33.8171 7.93129 33.3262 8.13704C32.6365 8.48294 31.9114 9.17475 31.3632 9.67632C30.9344 10.1615 29.3665 13.1476 27.7379 13.5159C26.0058 13.7869 24.4057 10.6443 28.4455 8.43082C28.0231 9.57278 28.6847 10.113 28.9318 10.2036C29.9185 10.4383 30.4484 9.41403 30.6472 9.13129C31.2329 8.32937 31.9118 7.0153 32.3275 6.7443C30.5419 7.17198 29.6753 5.49706 28.3836 5.7933C27.9945 5.86248 27.4023 6.16492 27.1545 6.44189C26.9953 6.7705 27.0218 7.15963 27.1987 7.50553C27.3844 7.80819 27.7912 8.03303 28.3128 8.21464C27.8613 8.30264 26.7793 8.732 26.2971 9.13105C25.9785 9.40801 25.7135 9.75368 25.4659 10.2034C25.0126 8.5567 23.1657 6.82153 21.3454 7.31504C22.2621 6.34044 21.507 5.12034 20.2136 5.48175C18.3166 6.06481 19.7323 6.73577 17.2161 8.13656C18.3135 8.419 18.3695 8.58877 19.3205 9.20886C20.4993 9.87627 21.5429 10.1685 21.7873 8.87186C21.9771 8.39743 21.6002 8.05978 21.2305 7.65232C22.5692 7.87052 24.1032 8.98469 24.3695 9.28673C24.8331 9.70778 25.0492 10.4466 25.0061 11.0508C24.8035 12.1378 24.9235 12.5481 25.0769 13.1782C22.8751 11.577 20.653 13.3935 18.7898 12.2358C16.8442 10.821 15.8102 8.82746 16.6679 6.68378C17.3134 5.16859 17.2668 5.36691 18.5687 4.15025C20.4774 2.52188 23.2894 2.39346 24.758 3.00901C24.3602 3.20789 24.0774 3.41519 23.9094 3.63139C23.3441 4.35889 24.3688 6.04204 26.4118 4.88529C27.0629 4.59875 26.6589 4.33978 28.6044 3.93429C27.627 3.22574 27.6032 2.24989 26.5975 1.41757C26.1579 1.08685 25.7163 0.854262 25.2358 1.08896C24.5963 1.45107 24.6023 1.98474 24.873 2.65441C23.9704 2.33128 23.1101 2.06731 22.1671 1.98014C22.397 1.77259 22.5207 1.53046 22.5384 1.32292C22.6191 0.896899 22.0256 -0.634922 20.4428 0.293837C21.5899 0.604349 21.8813 1.53418 21.513 2.01449C20.9384 2.79045 16.779 2.9939 15.8006 7.61839C15.6592 7.28978 15.4909 7.03923 15.2966 6.86604C14.9613 6.37415 13.6701 6.56106 13.4397 6.69308C12.8676 7.08048 13.3517 8.65333 14.0499 8.88092C13.9172 8.69931 13.8465 8.52635 13.8377 8.36206C13.8819 8.19777 13.8993 7.99044 14.0319 7.87804C15.7448 6.68151 15.2838 10.2543 18.1878 12.5823C18.5989 12.8781 19.4259 13.2132 19.912 13.1099C16.9867 15.3901 16.6914 15.5716 15.2787 16.1884C13.9209 16.8873 12.0707 16.0239 12.0157 14.1392C12.4843 14.4418 12.9176 14.6061 13.2447 14.5629C13.9834 14.4396 14.9129 13.3407 13.7045 12.1589C13.2359 11.592 12.3869 11.4078 11.1228 9.78918C11.122 11.3641 10.1815 11.4485 9.37206 12.8158C9.06421 13.6388 8.93629 14.2266 9.56659 14.9605C9.80559 15.2456 10.1327 15.3061 10.3801 15.3755C11.0078 15.4568 11.3167 14.8898 11.7241 14.3724C11.7241 15.9841 12.8323 16.9825 13.4569 17.1053C12.9264 17.5631 10.2393 19.1158 7.77135 17.7366C9.10819 17.1307 8.47398 15.1652 7.36461 14.243C7.00185 13.9578 6.58649 13.9835 6.18833 13.9233C5.34461 13.7399 4.8817 14.0083 3.84512 14.7102C2.52308 15.7156 3.08234 15.6118 0.918352 16.1889C0.503982 16.3006 0.211956 16.3441 0.00881643 16.3525L0.00878906 16.3526C0.876177 17.0807 2.01826 18.4233 2.2724 18.8604C2.73067 19.4987 2.25945 19.9362 4.30637 20.9356C6.5131 21.903 8.27961 20.0127 7.3039 17.8656C8.07215 18.6536 8.64506 18.8482 9.31086 18.9295C9.57638 18.9639 9.83281 18.9898 10.0094 18.9382C9.37854 20.4007 9.66772 20.9835 10.6635 21.7575C11.0304 22.0132 11.727 22.017 12.1667 21.9132C11.6255 21.5524 10.792 20.9987 10.6193 20.3653C10.553 18.1597 13.4294 18.2202 13.8555 17.9958C14.1385 17.8575 14.4038 17.598 14.6867 17.2521C15.6771 17.0851 17.4771 15.8134 18.1973 15.1851C18.2299 15.6372 18.4089 16.0049 18.8605 16.3352C19.4269 16.6599 19.7895 16.9448 20.5405 16.3525C19.2949 16.1269 19.3809 15.5342 19.4176 14.9598C19.506 14.7003 19.5414 14.4755 19.8329 14.1904C20.1512 13.879 20.7351 13.481 21.2126 13.2908C22.3863 12.9215 23.8828 12.9574 25.2709 13.7493C25.4088 14.4234 26.532 14.684 27.2248 14.7095C29.6537 14.5738 31.1518 10.9527 31.1861 10.9045C32.6489 8.99702 34.0192 8.51296 34.9951 8.417C35.9711 8.51299 37.3414 8.99702 38.8042 10.9045C38.8384 10.9527 40.3366 14.5738 42.7655 14.7095C43.4583 14.684 44.5815 14.4234 44.7194 13.7493C46.1075 12.9574 47.604 12.9214 48.7777 13.2908C49.2552 13.481 49.8391 13.879 50.1574 14.1904C50.4489 14.4755 50.4843 14.7003 50.5727 14.9598C50.6094 15.5342 50.6955 16.1269 49.4498 16.3525C50.2008 16.9448 50.5635 16.6599 51.1298 16.3352C51.5814 16.0049 51.7604 15.6372 51.793 15.1851C52.5132 15.8133 54.3132 17.0851 55.3036 17.2521C55.5866 17.598 55.8518 17.8575 56.1348 17.9958C56.5609 18.2202 59.4373 18.1597 59.3711 20.3653C59.1983 20.9987 58.3648 21.5524 57.8236 21.9132C58.2633 22.017 58.9599 22.0132 59.3268 21.7575C60.3226 20.9835 60.6118 20.4007 59.9809 18.9382C60.1575 18.9898 60.4139 18.9639 60.6794 18.9295C61.3452 18.8481 61.9181 18.6536 62.6864 17.8656C61.7107 20.0127 63.4772 21.903 65.6839 20.9356C67.7308 19.9362 67.2596 19.4987 67.7179 18.8604C67.972 18.4233 69.1141 17.0807 69.9815 16.3526L69.9815 16.3525C69.7784 16.3441 69.4863 16.3006 69.0719 16.1889C66.908 15.6117 67.4672 15.7156 66.1452 14.7102C65.1086 14.0084 64.6457 13.7399 63.802 13.9233C63.4038 13.9835 62.9885 13.9578 62.6257 14.243C61.5163 15.1652 60.8821 17.1307 62.2189 17.7366C59.751 19.1158 57.0639 17.5631 56.5334 17.1053C57.158 16.9825 58.2662 15.9841 58.2662 14.3724C58.6736 14.8898 58.9825 15.4568 59.6102 15.3755C59.8576 15.3061 60.1848 15.2456 60.4237 14.9605C61.054 14.2266 60.9261 13.6388 60.6183 12.8158C59.8088 11.4485 58.8683 11.3641 58.8675 9.78918C57.6035 11.4078 56.7544 11.592 56.2858 12.1589C55.0774 13.3407 56.0069 14.4396 56.7456 14.5629C57.0727 14.6061 57.506 14.4418 57.9747 14.1392C57.9196 16.0239 56.0694 16.8873 54.7116 16.1884C53.299 15.5716 53.0036 15.3901 50.0783 13.1099C50.5644 13.2132 51.3915 12.8781 51.8026 12.5823C54.7066 10.2543 54.2455 6.68148 55.9584 7.87804C56.0911 7.99047 56.1085 8.19777 56.1527 8.36206C56.1438 8.52635 56.0731 8.69931 55.9405 8.88092C56.6387 8.65333 57.1227 7.08045 56.5506 6.69308C56.3203 6.56106 55.0291 6.37415 54.6937 6.86604C54.4995 7.03923 54.3312 7.28978 54.1897 7.61839C53.2114 2.9939 49.0519 2.79045 48.4774 2.01449C48.1091 1.53418 48.4005 0.604349 49.5475 0.293837C47.9648 -0.634922 47.3713 0.896899 47.4519 1.32292C47.4696 1.53046 47.5934 1.77259 47.8233 1.98014C46.8803 2.06731 46.02 2.33128 45.1173 2.65441C45.3881 1.98474 45.3941 1.45104 44.7546 1.08896C44.2741 0.854262 43.8325 1.08685 43.3929 1.41757C42.3871 2.24989 42.3633 3.22574 41.3859 3.93429C43.3314 4.33978 42.9275 4.59875 43.5786 4.88529C45.6216 6.04201 46.6463 4.35889 46.0809 3.63139C45.913 3.41519 45.6302 3.20789 45.2323 3.00901C46.701 2.39346 49.513 2.52188 51.4217 4.15025C52.7235 5.36688 52.677 5.16856 53.3225 6.68378C54.1802 8.82746 53.1461 10.821 51.2006 12.2358C49.3374 13.3935 47.1153 11.5769 44.9135 13.1782C45.0669 12.5481 45.1869 12.1378 44.9843 11.0508C44.9412 10.4466 45.1573 9.70778 45.6209 9.28673C45.8871 8.98469 47.4212 7.87052 48.7599 7.65232C48.3902 8.05978 48.0133 8.39746 48.2031 8.87186C48.4475 10.1685 49.4911 9.87629 50.6698 9.20886C51.6209 8.58877 51.6768 8.419 52.7743 8.13656C50.2581 6.73577 51.6737 6.06481 49.7768 5.48175C48.4834 5.12034 47.7283 6.34044 48.645 7.31504C46.8247 6.82156 44.9778 8.5567 44.5245 10.2034C44.2769 9.75368 44.0119 9.40801 43.6933 9.13105C43.2111 8.732 42.1291 8.30264 41.6775 8.21464C42.1992 8.03303 42.606 7.80819 42.7917 7.50553C42.9685 7.15963 42.995 6.7705 42.8359 6.44189C42.5881 6.16492 41.9959 5.86248 41.6068 5.7933C40.3151 5.49706 39.4485 7.17198 37.6629 6.7443C38.0786 7.0153 38.7575 8.32937 39.3432 9.13129C39.5419 9.41403 40.0719 10.4383 41.0586 10.2036C41.3057 10.113 41.9672 9.57278 41.5449 8.43082C45.5847 10.6443 43.9846 13.7869 42.2525 13.5159C40.6239 13.1476 39.056 10.1615 38.6272 9.67632C38.079 9.17475 37.3539 8.48294 36.6642 8.13704C36.1731 7.93126 35.5959 7.78702 34.9951 7.69931Z" fill="white"/>
</svg>
